<svg version="1.1" xmlns="http://www.w3.org/2000/svg" xmlns:xlink="http://www.w3.org/1999/xlink" width="140.73567" height="70.41527" viewBox="0,0,140.73567,70.41527"><g transform="translate(-169.43081,-149.79444)"><g data-paper-data="{&quot;isPaintingLayer&quot;:true}" fill-rule="nonzero" stroke-linejoin="miter" stroke-miterlimit="10" stroke-dasharray="" stroke-dashoffset="0" style="mix-blend-mode: normal"><path d="M260.58964,164.52152l-15.17922,15.17922" data-paper-data="{&quot;index&quot;:null}" fill="none" stroke="#ffd900" stroke-width="4.5" stroke-linecap="round"/><path d="M250.2667,184.1778h21.46667" fill="none" stroke="#ffd900" stroke-width="4.5" stroke-linecap="round"/><path d="M228.33337,184.9778h-21.46667" fill="none" stroke="#ffd900" stroke-width="4.5" stroke-linecap="round"/><path d="M234.38964,179.50074l-15.17922,-15.17922" fill="none" stroke="#ffd900" stroke-width="4.5" stroke-linecap="round"/><path d="M239.80003,152.04445v21.46667" fill="none" stroke="#ffd900" stroke-width="4.5" stroke-linecap="round"/><path d="M219.1667,183.44446c0,-11.50593 9.3274,-20.83334 20.83334,-20.83334c11.50593,0 20.83333,9.3274 20.83333,20.83334c0,5.13814 -1.86007,9.84183 -4.94357,13.47446c-6.9564,-4.23584 -12.7471,-4.7835 -21.51477,-4.43279c-0.61266,0.02451 -1.20891,0.02709 -1.79514,0.03395c-0.27364,-0.02248 -0.55041,-0.03395 -0.82986,-0.03395c-0.82271,0 -1.62222,0.09935 -2.38718,0.28671c-0.85916,0.17126 -1.72282,0.46266 -2.61282,0.96329c-0.38744,0.21794 -0.73069,0.48034 -1.03856,0.77838c-0.74116,0.56231 -1.40149,1.2256 -1.9605,1.96939c-2.86811,-3.56951 -4.58427,-8.10406 -4.58427,-13.03943z" fill="#ffd900" stroke="none" stroke-width="0.5" stroke-linecap="butt"/><path d="M223.6667,183.44446c0,-9.02065 7.31269,-16.33334 16.33334,-16.33334c9.02065,0 16.33333,7.31269 16.33333,16.33334c0,4.39915 -1.73916,8.3921 -4.56742,11.3288c-5.30424,-2.2754 -10.40171,-2.56671 -17.39093,-2.28714c-0.61266,0.02451 -1.20891,0.02709 -1.79514,0.03395c-0.27364,-0.02248 -0.55041,-0.03395 -0.82986,-0.03395c-0.82271,0 -1.62222,0.09935 -2.38718,0.28671c-0.73062,0.14563 -1.46449,0.37815 -2.21505,0.75234c-2.18062,-2.77627 -3.4811,-6.27662 -3.4811,-10.08071z" fill="#ffc323" stroke="none" stroke-width="0.5" stroke-linecap="butt"/><path d="M293.72481,193.83749c-7.61114,5.46929 -17.72888,6.55101 -29.66667,5.1464c-12.16962,-1.43189 -15.47372,-5.81776 -25.33333,-5.74021c-9.85961,0.07755 -14.77427,4.51243 -25,6.13609c-10.84492,1.72198 -17.9107,0.29086 -28.33333,-5.34434" data-paper-data="{&quot;index&quot;:null}" fill="none" stroke="#0079ff" stroke-width="5.5" stroke-linecap="round"/><path d="M174.56119,220.20971c-0.92728,0 -1.83878,-0.0993 -2.7345,-0.29789c-0.89329,-0.20099 -1.60696,-0.48213 -2.141,-0.84343c-0.16992,-0.11485 -0.25488,-0.21774 -0.25488,-0.30866c0,-0.08853 0.02671,-0.1651 0.08011,-0.2297l0.64448,-1.00494c0.07768,-0.11485 0.14929,-0.17228 0.21483,-0.17228c0.06554,0 0.1505,0.0323 0.25488,0.0969c0.48306,0.28234 1.04379,0.51085 1.68221,0.68551c0.64084,0.17228 1.28775,0.25841 1.94073,0.25841c0.88601,0 1.55356,-0.14476 2.00263,-0.43428c0.4515,-0.28952 0.67725,-0.7549 0.67725,-1.39615c0,-0.38762 -0.08496,-0.69628 -0.25488,-0.92598c-0.16992,-0.23209 -0.41873,-0.43188 -0.74644,-0.59937c-0.32528,-0.16749 -0.85324,-0.39241 -1.5839,-0.67475l-0.44786,-0.17586c-0.8496,-0.33259 -1.55234,-0.65321 -2.10822,-0.96187c-0.55346,-0.30866 -1.01346,-0.71423 -1.38,-1.2167c-0.36412,-0.50247 -0.54617,-1.11381 -0.54617,-1.83402c0,-1.17004 0.45393,-2.07329 1.36179,-2.70975c0.90786,-0.63646 2.09851,-0.95469 3.57197,-0.95469c0.90058,0 1.67978,0.08375 2.33762,0.25124c0.66026,0.1651 1.23192,0.42231 1.71498,0.77165c0.15535,0.11485 0.23303,0.22372 0.23303,0.32661c0,0.07657 -0.02549,0.14715 -0.07646,0.21175l-0.62628,1.00494c-0.07768,0.11485 -0.14322,0.17228 -0.19662,0.17228c-0.05098,0 -0.13593,-0.03828 -0.25488,-0.11485c-0.83504,-0.52879 -1.87276,-0.79319 -3.11318,-0.79319c-0.82047,0 -1.43947,0.14835 -1.85699,0.44504c-0.41752,0.2967 -0.62628,0.76567 -0.62628,1.40692c0,0.39958 0.08739,0.71901 0.26216,0.95828c0.1772,0.23688 0.43451,0.43907 0.77192,0.60656c0.33984,0.16749 0.88844,0.3924 1.6458,0.67475l0.49155,0.19381c0.95155,0.37326 1.69435,0.71782 2.22838,1.03365c0.53646,0.31345 0.95155,0.70585 1.24527,1.17722c0.29372,0.46897 0.44058,1.06954 0.44058,1.80171c0,1.10543 -0.42116,1.97758 -1.26348,2.61644c-0.84232,0.63646 -2.03904,0.9547 -3.59017,0.9547zM187.18675,220.20971c-1.17488,0 -2.2126,-0.1962 -3.11318,-0.58861c-0.90058,-0.39241 -1.59968,-0.96187 -2.0973,-1.7084c-0.4952,-0.74653 -0.74279,-1.62107 -0.74279,-2.62362v-7.77752c0,-0.24406 0.05583,-0.42351 0.16749,-0.53836c0.11166,-0.11724 0.29736,-0.17586 0.5571,-0.17586h1.03773c0.26216,0 0.45151,0.05862 0.56802,0.17586c0.11652,0.11485 0.17477,0.29431 0.17477,0.53836v7.83495c0,1.00255 0.29736,1.76104 0.89208,2.27547c0.59472,0.51443 1.44675,0.77165 2.55609,0.77165c1.09477,0 1.9383,-0.25722 2.53059,-0.77165c0.59472,-0.51443 0.89208,-1.27293 0.89208,-2.27547v-7.83495c0,-0.24406 0.05826,-0.42351 0.17478,-0.53836c0.11894,-0.11724 0.3095,-0.17586 0.57166,-0.17586h1.01588c0.50976,0 0.76464,0.23808 0.76464,0.71423v7.77752c0,1.00255 -0.25124,1.8735 -0.75372,2.61285c-0.50248,0.73935 -1.204,1.30882 -2.10458,1.7084c-0.90058,0.39958 -1.93102,0.59938 -3.09133,0.59938zM196.07196,219.91899c-0.25973,0 -0.44543,-0.05742 -0.5571,-0.17227c-0.11166,-0.11724 -0.16749,-0.29191 -0.16749,-0.52401v-11.71115c0,-0.24406 0.05583,-0.42351 0.16749,-0.53836c0.11166,-0.11724 0.30343,-0.17586 0.5753,-0.17586h0.903c0.18206,0 0.32528,0.02632 0.42965,0.07896c0.10438,0.05025 0.20876,0.15313 0.31314,0.30866l6.4594,8.8363v-8.5097c0,-0.24406 0.05583,-0.42351 0.1675,-0.53836c0.11166,-0.11724 0.29736,-0.17586 0.55709,-0.17586h1.03773c0.26216,0 0.4515,0.05862 0.56802,0.17586c0.11652,0.11485 0.17478,0.29431 0.17478,0.53836v11.71115c0,0.23209 -0.05583,0.40677 -0.1675,0.52401c-0.10923,0.11485 -0.301,0.17227 -0.5753,0.17227h-0.92121c-0.18206,0 -0.31921,-0.02273 -0.41145,-0.06819c-0.08982,-0.04546 -0.19419,-0.14476 -0.31314,-0.29789l-6.4594,-8.81836v8.48816c0,0.23209 -0.05583,0.40677 -0.16749,0.52401c-0.10923,0.11485 -0.301,0.17227 -0.5753,0.17227zM213.76959,220.20971c-0.92728,0 -1.83878,-0.0993 -2.7345,-0.29789c-0.89329,-0.20099 -1.60696,-0.48213 -2.14099,-0.84343c-0.16992,-0.11485 -0.25488,-0.21774 -0.25488,-0.30866c0,-0.08853 0.0267,-0.1651 0.08011,-0.2297l0.64448,-1.00494c0.07768,-0.11485 0.14929,-0.17228 0.21483,-0.17228c0.06554,0 0.1505,0.0323 0.25488,0.0969c0.48306,0.28234 1.0438,0.51085 1.68221,0.68551c0.64084,0.17228 1.28775,0.25841 1.94073,0.25841c0.88601,0 1.55356,-0.14476 2.00263,-0.43428c0.4515,-0.28952 0.67725,-0.7549 0.67725,-1.39615c0,-0.38762 -0.08496,-0.69628 -0.25488,-0.92598c-0.16992,-0.23209 -0.41873,-0.43188 -0.74644,-0.59937c-0.32528,-0.16749 -0.85324,-0.39241 -1.5839,-0.67475l-0.44786,-0.17586c-0.8496,-0.33259 -1.55234,-0.65321 -2.10822,-0.96187c-0.55346,-0.30866 -1.01346,-0.71423 -1.38,-1.2167c-0.36412,-0.50247 -0.54617,-1.11381 -0.54617,-1.83402c0,-1.17004 0.45393,-2.07329 1.36179,-2.70975c0.90786,-0.63646 2.09851,-0.95469 3.57197,-0.95469c0.90058,0 1.67978,0.08375 2.33762,0.25124c0.66026,0.1651 1.23192,0.42231 1.71498,0.77165c0.15535,0.11485 0.23303,0.22372 0.23303,0.32661c0,0.07657 -0.02549,0.14715 -0.07647,0.21175l-0.62628,1.00494c-0.07768,0.11485 -0.14322,0.17228 -0.19662,0.17228c-0.05098,0 -0.13593,-0.03828 -0.25488,-0.11485c-0.83504,-0.52879 -1.87276,-0.79319 -3.11318,-0.79319c-0.82047,0 -1.43947,0.14835 -1.85699,0.44504c-0.41752,0.2967 -0.62628,0.76567 -0.62628,1.40692c0,0.39958 0.08739,0.71901 0.26216,0.95828c0.1772,0.23688 0.43451,0.43907 0.77192,0.60656c0.33984,0.16749 0.88844,0.3924 1.6458,0.67475l0.49155,0.19381c0.95155,0.37326 1.69435,0.71782 2.22838,1.03365c0.53646,0.31345 0.95156,0.70585 1.24527,1.17722c0.29372,0.46897 0.44058,1.06954 0.44058,1.80171c0,1.10543 -0.42116,1.97758 -1.26348,2.61644c-0.84232,0.63646 -2.03904,0.9547 -3.59017,0.9547zM221.26477,219.91899c-0.25973,0 -0.44543,-0.05742 -0.5571,-0.17227c-0.11166,-0.11724 -0.16749,-0.29191 -0.16749,-0.52401v-11.71115c0,-0.24406 0.05583,-0.42351 0.16749,-0.53836c0.11166,-0.11724 0.29736,-0.17586 0.5571,-0.17586h8.14525c0.25973,0 0.43815,0.05144 0.53525,0.15433c0.09952,0.10289 0.14929,0.27636 0.14929,0.52042v0.524c0,0.24406 -0.04976,0.42112 -0.14929,0.53118c-0.0971,0.10767 -0.27552,0.16151 -0.53525,0.16151h-6.36472v3.74341h4.62061c0.26216,0 0.44543,0.05145 0.54981,0.15433c0.10438,0.10289 0.15657,0.27636 0.15657,0.52041v0.48453c0,0.24406 -0.05219,0.42112 -0.15657,0.53118c-0.10438,0.10767 -0.28765,0.16151 -0.54981,0.16151h-4.62061v3.76494h6.34288c0.26216,0 0.44544,0.05503 0.54982,0.1651c0.10438,0.10767 0.15657,0.28354 0.15657,0.52759v0.52042c0,0.23209 -0.05219,0.39959 -0.15657,0.50247c-0.10438,0.10289 -0.28765,0.15433 -0.54982,0.15433zM235.88609,219.91899c-0.25973,0 -0.44908,-0.05742 -0.56802,-0.17227c-0.11652,-0.11724 -0.17477,-0.29191 -0.17477,-0.52401v-10.53393h-3.42632c-0.25973,0 -0.43937,-0.05145 -0.53889,-0.15433c-0.0971,-0.10289 -0.14564,-0.27636 -0.14564,-0.52042v-0.52041c0,-0.24406 0.04855,-0.42112 0.14564,-0.53118c0.09952,-0.11006 0.27916,-0.1651 0.53889,-0.1651h9.35775c0.26216,0 0.44543,0.05503 0.54981,0.1651c0.10438,0.11006 0.15657,0.28713 0.15657,0.53118v0.52041c0,0.24406 -0.05219,0.41753 -0.15657,0.52042c-0.10438,0.10289 -0.28765,0.15433 -0.54981,0.15433h-3.42632v10.53393c0,0.23209 -0.05583,0.40677 -0.16749,0.52401c-0.10923,0.11485 -0.301,0.17227 -0.5753,0.17227z" fill="#ffc323" stroke="none" stroke-width="1" stroke-linecap="square"/><path d="M252.98941,220.1516c-2.21867,0 -3.93487,-0.5922 -5.14858,-1.77659c-1.21371,-1.1844 -1.82057,-2.87605 -1.82057,-5.07495c0,-2.18695 0.60928,-3.87501 1.82785,-5.06419c1.221,-1.18918 2.93477,-1.78377 5.1413,-1.78377c0.88601,0 1.71377,0.08973 2.48326,0.26918c0.7695,0.17945 1.40913,0.43667 1.91889,0.77165c0.11894,0.07657 0.17842,0.16031 0.17842,0.25124c0,0.0646 -0.0267,0.14117 -0.08011,0.2297l-0.56802,0.96546c-0.07768,0.11724 -0.15535,0.17586 -0.23303,0.17586c-0.04127,0 -0.12623,-0.0323 -0.25488,-0.0969c-0.88844,-0.49051 -1.94559,-0.73576 -3.17144,-0.73576c-1.48801,0 -2.65682,0.41514 -3.50643,1.24541c-0.84717,0.83027 -1.27076,2.08765 -1.27076,3.77212c0,1.69883 0.41023,2.95979 1.23071,3.78289c0.8229,0.8231 1.95287,1.23464 3.38991,1.23464c0.5219,0 1.03045,-0.04187 1.52564,-0.12562c0.4952,-0.08374 0.89936,-0.20219 1.2125,-0.35532v-3.57113h-2.58157c-0.26216,0 -0.44543,-0.05384 -0.54981,-0.16151c-0.10438,-0.11006 -0.15657,-0.28832 -0.15657,-0.53477v-0.49888c0,-0.24406 0.05219,-0.41394 0.15657,-0.50965c0.10438,-0.0981 0.28765,-0.14715 0.54981,-0.14715h4.12906c0.28644,0 0.49155,0.06819 0.61536,0.20458c0.12623,0.13399 0.18934,0.34216 0.18934,0.6245v5.0929c0,0.19381 -0.02063,0.33977 -0.0619,0.43787c-0.03884,0.09571 -0.12258,0.18184 -0.25124,0.25841c-1.20158,0.74653 -2.83281,1.11979 -4.8937,1.11979zM260.05398,219.86089c-0.2209,0 -0.33134,-0.0969 -0.33134,-0.29071c0,-0.07657 0.01942,-0.16031 0.05826,-0.25124l5.16679,-12.07724c0.07768,-0.19381 0.16264,-0.32541 0.25488,-0.3948c0.09224,-0.07178 0.22211,-0.10767 0.3896,-0.10767h1.07778c0.18206,0 0.31557,0.03589 0.40053,0.10767c0.08496,0.06939 0.16749,0.20099 0.2476,0.3948l5.16679,12.07724c0.03884,0.09092 0.05826,0.17467 0.05826,0.25124c0,0.19381 -0.11045,0.29071 -0.33134,0.29071h-1.70406c-0.16992,0 -0.29129,-0.02273 -0.36412,-0.06819c-0.07039,-0.04546 -0.13836,-0.13878 -0.2039,-0.27995l-1.11419,-2.69898h-5.40347l-1.09599,2.69898c-0.06554,0.14117 -0.13472,0.23449 -0.20754,0.27995c-0.07039,0.04546 -0.19055,0.06819 -0.36047,0.06819zM268.19558,215.01922l-2.07181,-5.05701l-2.07545,5.05701zM274.69581,219.86089c-0.25973,0 -0.44543,-0.05743 -0.55709,-0.17228c-0.11166,-0.11724 -0.1675,-0.29191 -0.1675,-0.524v-11.71115c0,-0.24406 0.05583,-0.42351 0.1675,-0.53836c0.11166,-0.11724 0.30343,-0.17587 0.5753,-0.17587h1.05957c0.20876,0 0.36776,0.02632 0.47699,0.07896c0.11166,0.05025 0.20026,0.15313 0.2658,0.30866l3.95429,8.97269l3.95428,-8.97269c0.06554,-0.15553 0.15293,-0.25841 0.26216,-0.30866c0.11166,-0.05264 0.27188,-0.07896 0.48063,-0.07896h1.05957c0.27187,0 0.46364,0.05863 0.5753,0.17587c0.11166,0.11485 0.16749,0.2943 0.16749,0.53836v11.71115c0,0.23209 -0.05583,0.40676 -0.16749,0.524c-0.11166,0.11485 -0.29736,0.17228 -0.5571,0.17228h-0.86295c-0.25973,0 -0.44907,-0.05743 -0.56802,-0.17228c-0.11652,-0.11724 -0.17478,-0.29191 -0.17478,-0.524v-8.31589l-3.34622,7.35401c-0.10438,0.20577 -0.20876,0.35412 -0.31314,0.44504c-0.10438,0.08853 -0.2743,0.1328 -0.50976,0.1328c-0.23546,0 -0.40902,-0.04427 -0.52069,-0.1328c-0.10923,-0.09092 -0.20997,-0.23927 -0.30222,-0.44504l-3.34621,-7.35401v8.31589c0,0.23209 -0.05583,0.40676 -0.16749,0.524c-0.10923,0.11485 -0.301,0.17228 -0.5753,0.17228zM290.00333,219.86089c-0.25973,0 -0.44543,-0.05743 -0.55709,-0.17228c-0.11166,-0.11724 -0.1675,-0.29191 -0.1675,-0.524v-11.71115c0,-0.24406 0.05583,-0.42351 0.1675,-0.53836c0.11166,-0.11724 0.29736,-0.17587 0.55709,-0.17587h8.14525c0.25973,0 0.43815,0.05145 0.53525,0.15433c0.09952,0.10289 0.14929,0.27636 0.14929,0.52042v0.524c0,0.24406 -0.04976,0.42112 -0.14929,0.53118c-0.0971,0.10767 -0.27551,0.16151 -0.53525,0.16151h-6.36473v3.74341h4.62061c0.26216,0 0.44544,0.05144 0.54982,0.15433c0.10438,0.10289 0.15657,0.27636 0.15657,0.52042v0.48453c0,0.24406 -0.05219,0.42112 -0.15657,0.53118c-0.10438,0.10767 -0.28765,0.16151 -0.54982,0.16151h-4.62061v3.76494h6.34288c0.26216,0 0.44543,0.05503 0.54981,0.1651c0.10438,0.10767 0.15657,0.28354 0.15657,0.52759v0.52042c0,0.23209 -0.05219,0.39958 -0.15657,0.50247c-0.10438,0.10289 -0.28765,0.15433 -0.54981,0.15433zM305.31283,220.1516c-0.92728,0 -1.83878,-0.0993 -2.7345,-0.2979c-0.89329,-0.20099 -1.60696,-0.48213 -2.141,-0.84343c-0.16992,-0.11485 -0.25488,-0.21774 -0.25488,-0.30866c0,-0.08853 0.0267,-0.1651 0.08011,-0.2297l0.64448,-1.00494c0.07768,-0.11485 0.14929,-0.17227 0.21483,-0.17227c0.06554,0 0.1505,0.0323 0.25488,0.0969c0.48306,0.28234 1.0438,0.51085 1.68221,0.68551c0.64084,0.17228 1.28775,0.25841 1.94073,0.25841c0.88601,0 1.55356,-0.14476 2.00263,-0.43428c0.4515,-0.28952 0.67725,-0.7549 0.67725,-1.39615c0,-0.38762 -0.08496,-0.69628 -0.25488,-0.92598c-0.16992,-0.23209 -0.41873,-0.43189 -0.74643,-0.59938c-0.32528,-0.16749 -0.85324,-0.3924 -1.5839,-0.67475l-0.44786,-0.17586c-0.8496,-0.33259 -1.55235,-0.65321 -2.10823,-0.96187c-0.55346,-0.30866 -1.01345,-0.71423 -1.37999,-1.2167c-0.36412,-0.50247 -0.54617,-1.11381 -0.54617,-1.83402c0,-1.17004 0.45393,-2.07329 1.36179,-2.70975c0.90786,-0.63646 2.09851,-0.95469 3.57197,-0.95469c0.90058,0 1.67978,0.08375 2.33762,0.25124c0.66026,0.1651 1.23192,0.42231 1.71498,0.77165c0.15535,0.11485 0.23303,0.22372 0.23303,0.3266c0,0.07657 -0.02549,0.14716 -0.07646,0.21176l-0.62628,1.00494c-0.07768,0.11485 -0.14322,0.17228 -0.19662,0.17228c-0.05098,0 -0.13593,-0.03828 -0.25488,-0.11485c-0.83504,-0.52879 -1.87276,-0.79319 -3.11318,-0.79319c-0.82047,0 -1.43947,0.14835 -1.85699,0.44505c-0.41752,0.2967 -0.62628,0.76567 -0.62628,1.40692c0,0.39958 0.08739,0.71901 0.26216,0.95828c0.1772,0.23688 0.43451,0.43906 0.77192,0.60655c0.33984,0.16749 0.88844,0.39241 1.6458,0.67475l0.49155,0.19381c0.95155,0.37326 1.69435,0.71782 2.22838,1.03365c0.53646,0.31345 0.95156,0.70585 1.24527,1.17722c0.29372,0.46897 0.44058,1.06954 0.44058,1.80171c0,1.10543 -0.42116,1.97758 -1.26348,2.61644c-0.84232,0.63646 -2.03904,0.9547 -3.59017,0.9547z" fill="#0079ff" stroke="none" stroke-width="1" stroke-linecap="square"/></g></g></svg>